<svg width="32" height="32" viewBox="0 0 32 32" fill="none" xmlns="http://www.w3.org/2000/svg">
<path d="M0 1.37143C0 1.0077 0.144499 0.658875 0.40171 0.401682C0.658921 0.144489 1.00777 0 1.37152 0H2.39194C4.1292 0 5.17156 1.16846 5.76589 2.25463C6.16272 2.97874 6.44982 3.81806 6.67475 4.57874L6.85762 4.57143H29.7127C31.2305 4.57143 32.3277 6.02331 31.9108 7.48434L28.5679 19.2037C28.2682 20.2548 27.6341 21.1797 26.7617 21.8383C25.8893 22.4969 24.826 22.8532 23.7329 22.8535H12.8558C11.754 22.8535 10.6826 22.4918 9.80645 21.8238C8.93026 21.1558 8.29772 20.2185 8.00604 19.1561L6.61623 14.0873L4.31207 6.31954L4.31024 6.30491C4.02497 5.26811 3.75798 4.29714 3.35932 3.57303C2.97712 2.86903 2.6699 2.74286 2.39377 2.74286H1.37152C1.00777 2.74286 0.658921 2.59837 0.40171 2.34118C0.144499 2.08398 0 1.73515 0 1.37143ZM11.8865 32C12.8565 32 13.7868 31.6147 14.4727 30.9288C15.1586 30.243 15.5439 29.3128 15.5439 28.3429C15.5439 27.3729 15.1586 26.4427 14.4727 25.7569C13.7868 25.071 12.8565 24.6857 11.8865 24.6857C10.9165 24.6857 9.98627 25.071 9.30037 25.7569C8.61448 26.4427 8.22915 27.3729 8.22915 28.3429C8.22915 29.3128 8.61448 30.243 9.30037 30.9288C9.98627 31.6147 10.9165 32 11.8865 32ZM24.6874 32C25.6574 32 26.5877 31.6147 27.2736 30.9288C27.9595 30.243 28.3448 29.3128 28.3448 28.3429C28.3448 27.3729 27.9595 26.4427 27.2736 25.7569C26.5877 25.071 25.6574 24.6857 24.6874 24.6857C23.7174 24.6857 22.7872 25.071 22.1013 25.7569C21.4154 26.4427 21.03 27.3729 21.03 28.3429C21.03 29.3128 21.4154 30.243 22.1013 30.9288C22.7872 31.6147 23.7174 32 24.6874 32Z" fill="#0B4A2A"/>
</svg>
