<svg width="37" height="37" viewBox="0 0 37 37" fill="none" xmlns="http://www.w3.org/2000/svg">
<path d="M29.2917 4.625C30.1094 4.625 30.8937 4.94985 31.4719 5.52809C32.0501 6.10632 32.375 6.89058 32.375 7.70833V29.2917C32.375 30.1094 32.0501 30.8937 31.4719 31.4719C30.8937 32.0501 30.1094 32.375 29.2917 32.375H7.70833C6.89058 32.375 6.10632 32.0501 5.52809 31.4719C4.94985 30.8937 4.625 30.1094 4.625 29.2917V7.70833C4.625 6.89058 4.94985 6.10632 5.52809 5.52809C6.10632 4.94985 6.89058 4.625 7.70833 4.625H29.2917ZM24.0192 26.2083L22.5546 19.9183L27.4263 15.7096L20.9975 15.1546L18.5 9.25L16.0025 15.17L9.57375 15.725L14.4454 19.9338L12.9808 26.2083L18.5 22.8783L24.0192 26.2083Z" fill="#0B4A2A"/>
</svg>
