<svg width="32" height="32" viewBox="0 0 32 32" fill="none" xmlns="http://www.w3.org/2000/svg">
<path d="M30.6667 5.46663V3.06663L28.2667 2.79996C28.1333 2.79996 27.3333 2.66663 26 2.66663C20.5333 2.66663 16.5333 4.26663 14.2667 7.06663C12.5333 5.99996 10.1333 5.33329 7.33333 5.33329C6 5.33329 5.06667 5.46663 5.06667 5.46663L2.53333 5.86663L2.66667 8.13329C2.8 12.1333 4.8 19.7333 11.7333 19.7333H12V24.2666C6.93333 24.9333 2.66667 26.6666 2.66667 26.6666V29.3333H29.3333V26.6666C29.3333 26.6666 25.0667 24.9333 20 24.2666V20C28.4 19.8666 30.6667 10.4 30.6667 5.46663ZM16 24H14.6667V16.5333C14.6667 16.5333 14.4 12 10.6667 12C10.6667 12 12.6667 13.0666 13.2 16.9333C12.6667 17.0666 12.1333 17.0666 11.7333 17.0666C5.6 17.0666 5.33333 8.13329 5.33333 8.13329C5.33333 8.13329 6.13333 7.99996 7.33333 7.99996C9.86667 7.99996 14 8.53329 15.2 12.1333C15.8667 6.13329 22.6667 5.33329 26 5.33329C27.2 5.33329 28 5.46663 28 5.46663C28 5.46663 28 17.4666 19.6 17.4666H18.6667C18.6667 14.8 21.3333 10.8 21.3333 10.8C17.3333 12.1333 17.3333 17.3333 17.3333 17.3333V24H16Z" fill="#235C3D"/>
</svg>
