<svg width="32" height="32" viewBox="0 0 32 32" fill="none" xmlns="http://www.w3.org/2000/svg">
<path fill-rule="evenodd" clip-rule="evenodd" d="M4 6C4 5.46957 4.21071 4.96086 4.58579 4.58579C4.96086 4.21071 5.46957 4 6 4H26C26.5304 4 27.0391 4.21071 27.4142 4.58579C27.7893 4.96086 28 5.46957 28 6V8.78133C27.9998 9.48852 27.7188 10.1667 27.2187 10.6667L20 17.8853V27.784C20 28.034 19.9362 28.2799 19.8144 28.4983C19.6927 28.7167 19.5171 28.9004 19.3045 29.0318C19.0918 29.1633 18.849 29.2382 18.5992 29.2494C18.3495 29.2606 18.101 29.2078 17.8773 29.096L12.9213 26.6187C12.6445 26.4803 12.4117 26.2675 12.2489 26.0042C12.0862 25.7409 12 25.4375 12 25.128V17.8853L4.78133 10.6667C4.2812 10.1667 4.00015 9.48852 4 8.78133V6Z" fill="#0B4A2A"/>
</svg>
