<svg width="55" height="55" viewBox="0 0 55 55" fill="none" xmlns="http://www.w3.org/2000/svg">
<path d="M48.1204 6.87499V11.4583C48.1204 15.7128 46.4303 19.7931 43.4219 22.8015C40.4135 25.8099 36.3333 27.5 32.0787 27.5H29.7871V29.7917H41.2454V45.8333C41.2454 47.0489 40.7625 48.2147 39.903 49.0742C39.0434 49.9338 37.8777 50.4167 36.6621 50.4167H18.3287C17.1132 50.4167 15.9474 49.9338 15.0878 49.0742C14.2283 48.2147 13.7454 47.0489 13.7454 45.8333V29.7917H25.2037V22.9167C25.2037 18.6621 26.8938 14.5819 29.9022 11.5735C32.9106 8.56508 36.9909 6.87499 41.2454 6.87499H48.1204ZM12.5996 4.58332C15.3495 4.58109 18.0598 5.23961 20.5021 6.50345C22.9444 7.76728 25.0473 9.59942 26.6337 11.8456C24.2134 15.0283 22.9057 18.9182 22.9121 22.9167V25.2083H21.7662C17.2078 25.2083 12.8361 23.3975 9.61285 20.1742C6.38957 16.9509 4.57875 12.5792 4.57875 8.02082V4.58332H12.5996Z" fill="#0B4A2A"/>
</svg>
