<svg width="55" height="55" viewBox="0 0 55 55" fill="none" xmlns="http://www.w3.org/2000/svg">
<path fill-rule="evenodd" clip-rule="evenodd" d="M7.93833 7.93834C4.58333 11.2979 4.58333 16.6971 4.58333 27.5C4.58333 38.3029 4.58333 43.7044 7.93833 47.0594C11.2979 50.4167 16.6971 50.4167 27.5 50.4167C38.3029 50.4167 43.7044 50.4167 47.0594 47.0594C50.4167 43.7067 50.4167 38.3029 50.4167 27.5C50.4167 16.6971 50.4167 11.2956 47.0594 7.93834C43.7067 4.58334 38.3029 4.58334 27.5 4.58334C16.6971 4.58334 11.2956 4.58334 7.93833 7.93834ZM31.5104 22.9167C31.5104 23.8654 32.2804 24.6354 33.2292 24.6354H34.8104L30.1973 29.2485C30.1441 29.3019 30.0808 29.3442 30.0112 29.3731C29.9416 29.402 29.867 29.4169 29.7917 29.4169C29.7163 29.4169 29.6417 29.402 29.5721 29.3731C29.5025 29.3442 29.4393 29.3019 29.386 29.2485L25.7515 25.614C24.9994 24.8625 23.9798 24.4403 22.9167 24.4403C21.8535 24.4403 20.8339 24.8625 20.0819 25.614L14.8271 30.8688C14.6582 31.0261 14.5228 31.2159 14.4288 31.4267C14.3349 31.6375 14.2844 31.8651 14.2803 32.0959C14.2762 32.3267 14.3187 32.5559 14.4051 32.7699C14.4916 32.9839 14.6202 33.1783 14.7835 33.3416C14.9467 33.5048 15.1411 33.6334 15.3551 33.7199C15.5691 33.8063 15.7983 33.8488 16.0291 33.8447C16.2599 33.8406 16.4875 33.7901 16.6983 33.6962C16.9091 33.6022 17.0989 33.4668 17.2562 33.2979L22.511 28.0431C22.5643 27.9898 22.6275 27.9475 22.6971 27.9186C22.7667 27.8897 22.8413 27.8748 22.9167 27.8748C22.992 27.8748 23.0666 27.8897 23.1362 27.9186C23.2058 27.9475 23.2691 27.9898 23.3223 28.0431L26.9569 31.6777C27.7089 32.4292 28.7285 32.8513 29.7917 32.8513C30.8548 32.8513 31.8744 32.4292 32.6265 31.6777L37.2396 27.0669V28.6458C37.2396 29.1017 37.4207 29.5389 37.743 29.8612C38.0653 30.1835 38.5025 30.3646 38.9583 30.3646C39.4142 30.3646 39.8513 30.1835 40.1737 29.8612C40.496 29.5389 40.6771 29.1017 40.6771 28.6458V22.9167C40.6771 22.4608 40.496 22.0237 40.1737 21.7013C39.8513 21.379 39.4142 21.1979 38.9583 21.1979H33.2292C32.7733 21.1979 32.3362 21.379 32.0138 21.7013C31.6915 22.0237 31.5104 22.4608 31.5104 22.9167Z" fill="#235C3D"/>
</svg>
