<svg width="18" height="18" viewBox="0 0 18 18" fill="none" xmlns="http://www.w3.org/2000/svg">
<path d="M6.86474 4.05597C7.81499 2.35197 8.28974 1.49997 8.99999 1.49997C9.71024 1.49997 10.185 2.35197 11.1352 4.05597L11.3812 4.49697C11.6512 4.98147 11.7862 5.22372 11.9962 5.38347C12.2062 5.54322 12.4687 5.60247 12.9937 5.72097L13.4707 5.82897C15.3157 6.24672 16.2375 6.45522 16.4572 7.16097C16.6762 7.86597 16.0477 8.60172 14.79 10.0725L14.4645 10.4527C14.1075 10.8705 13.9282 11.0797 13.848 11.3377C13.7677 11.5965 13.7947 11.8755 13.8487 12.4327L13.8982 12.9405C14.088 14.9032 14.1832 15.8842 13.6087 16.32C13.0342 16.7557 12.1702 16.3582 10.4437 15.5632L9.99599 15.3577C9.50549 15.1312 9.26024 15.0187 8.99999 15.0187C8.73974 15.0187 8.49449 15.1312 8.00399 15.3577L7.55699 15.5632C5.82974 16.3582 4.96574 16.7557 4.39199 16.3207C3.81674 15.8842 3.91199 14.9032 4.10174 12.9405L4.15124 12.4335C4.20524 11.8755 4.23224 11.5965 4.15124 11.3385C4.07174 11.0797 3.89249 10.8705 3.53549 10.4535L3.20999 10.0725C1.95224 8.60247 1.32374 7.86672 1.54274 7.16097C1.76174 6.45522 2.68499 6.24597 4.52999 5.82897L5.00699 5.72097C5.53124 5.60247 5.79299 5.54322 6.00374 5.38347C6.21449 5.22372 6.34874 4.98147 6.61874 4.49697L6.86474 4.05597Z" stroke="#0B4A2A" stroke-opacity="0.5"/>
</svg>
