<svg width="60" height="60" viewBox="0 0 60 60" fill="none" xmlns="http://www.w3.org/2000/svg">
<path d="M28.125 19.6175C25.785 20.2575 24.375 22.055 24.375 23.75C24.375 25.445 25.785 27.2425 28.125 27.88V19.6175ZM31.875 32.12V40.38C34.215 39.7425 35.625 37.945 35.625 36.25C35.625 34.555 34.215 32.7575 31.875 32.12Z" fill="#235C3D"/>
<path fill-rule="evenodd" clip-rule="evenodd" d="M55 30C55 43.8075 43.8075 55 30 55C16.1925 55 5 43.8075 5 30C5 16.1925 16.1925 5 30 5C43.8075 5 55 16.1925 55 30ZM30 13.125C30.4973 13.125 30.9742 13.3225 31.3258 13.6742C31.6775 14.0258 31.875 14.5027 31.875 15V15.7925C35.95 16.5225 39.375 19.585 39.375 23.75C39.375 24.2473 39.1775 24.7242 38.8258 25.0758C38.4742 25.4275 37.9973 25.625 37.5 25.625C37.0027 25.625 36.5258 25.4275 36.1742 25.0758C35.8225 24.7242 35.625 24.2473 35.625 23.75C35.625 22.055 34.215 20.2575 31.875 19.6175V28.2925C35.95 29.0225 39.375 32.085 39.375 36.25C39.375 40.415 35.95 43.4775 31.875 44.2075V45C31.875 45.4973 31.6775 45.9742 31.3258 46.3258C30.9742 46.6775 30.4973 46.875 30 46.875C29.5027 46.875 29.0258 46.6775 28.6742 46.3258C28.3225 45.9742 28.125 45.4973 28.125 45V44.2075C24.05 43.4775 20.625 40.415 20.625 36.25C20.625 35.7527 20.8225 35.2758 21.1742 34.9242C21.5258 34.5725 22.0027 34.375 22.5 34.375C22.9973 34.375 23.4742 34.5725 23.8258 34.9242C24.1775 35.2758 24.375 35.7527 24.375 36.25C24.375 37.945 25.785 39.7425 28.125 40.38V31.7075C24.05 30.9775 20.625 27.915 20.625 23.75C20.625 19.585 24.05 16.5225 28.125 15.7925V15C28.125 14.5027 28.3225 14.0258 28.6742 13.6742C29.0258 13.3225 29.5027 13.125 30 13.125Z" fill="#235C3D"/>
</svg>
