<svg width="19" height="19" viewBox="0 0 19 19" fill="none" xmlns="http://www.w3.org/2000/svg">
<path d="M8.1353 1.54518C8.79734 0.818273 9.94103 0.818273 10.6031 1.54518L11.4544 2.47995C11.7889 2.84733 12.2698 3.04651 12.7662 3.02331L14.0291 2.96429C15.0112 2.91839 15.82 3.72716 15.7741 4.70927L15.715 5.97221C15.6918 6.46856 15.891 6.94943 16.2584 7.284L17.1932 8.1353C17.9201 8.79734 17.9201 9.94103 17.1932 10.6031L16.2584 11.4544C15.891 11.7889 15.6918 12.2698 15.715 12.7662L15.7741 14.0291C15.82 15.0112 15.0112 15.82 14.0291 15.7741L12.7662 15.715C12.2698 15.6918 11.7889 15.891 11.4544 16.2584L10.6031 17.1932C9.94103 17.9201 8.79734 17.9201 8.1353 17.1932L7.284 16.2584C6.94943 15.891 6.46856 15.6918 5.97221 15.715L4.70926 15.7741C3.72716 15.82 2.91839 15.0112 2.96429 14.0291L3.02331 12.7662C3.04651 12.2698 2.84733 11.7889 2.47995 11.4544L1.54518 10.6031C0.818273 9.94103 0.818273 8.79734 1.54518 8.1353L2.47995 7.284C2.84733 6.94943 3.04651 6.46856 3.02331 5.97221L2.96429 4.70926C2.91839 3.72716 3.72716 2.91839 4.70927 2.96429L5.97221 3.02331C6.46856 3.04651 6.94943 2.84733 7.284 2.47995L8.1353 1.54518Z" fill="#0B4A2A" stroke="#0B4A2A"/>
<path d="M6.86584 9.3692L8.53472 11.0381L11.8725 7.70032" fill="#0B4A2A"/>
<path d="M6.86584 9.3692L8.53472 11.0381L11.8725 7.70032" stroke="#FAF3E0" stroke-linecap="round" stroke-linejoin="round"/>
</svg>
